# xmcd
#
# Track frame offsets:
#	150
#	16838
#	35902
#	50866
#	64659
#	82122
#	100506
#	119136
#	136340
#	150601
#	167289
#	186353
#	201317
#	215110
#	232573
#	250957
#	269587
#	286791
#
# Disc length: 4014 seconds
#
# Revision: 1
# Processed by: cddbd v1.5.2PL0 Copyright (c) Steve Scherf et al.
# Submitted via: audiograbber 1.83.01
#
DISCID=080fac12
DTITLE=Pop Hits Monthly - PHM0704-C
DYEAR=2007
DGENRE=Karaoke
TTITLE0=Rascal Flatts - Stand
TTITLE1=Tim McGraw - Last Dollar
TTITLE2=Montgomery Gentry - Lucky Man
TTITLE3=Eric Church - Guys like me
TTITLE4=Catherine Britt - What I did last night
TTITLE5=Lonestar - Nothing to prove
TTITLE6=Luke Bryan - All my friends say
TTITLE7=Bucky Covington - A different world
TTITLE8=Little big town - We go together
TTITLE9=Rascal Flatts ( Vocals ) - Stand ( Vocals )
TTITLE10=Tim McGraw ( Vocals ) - Last Dollar ( Vocals )
TTITLE11=Montgomery Gentry ( Vocals ) - Lucky Man ( Vocals )
TTITLE12=Eric Church ( Vocals ) - Guys like me ( Vocals )
TTITLE13=Catherine Britt ( Vocals ) - What I did last night ( Vocals )
TTITLE14=Lonestar ( Vocals ) - Nothing to prove ( Vocals )
TTITLE15=Luke Bryan ( Vocals ) - All my friends say ( Vocals )
TTITLE16=Bucky Covington ( Vocals ) - A different world ( Vocals )
TTITLE17=Little big town ( Vocals ) - We go together ( Vocals )
EXTD=Stellar Records
EXTT0=
EXTT1=
EXTT2=
EXTT3=
EXTT4=
EXTT5=
EXTT6=
EXTT7=
EXTT8=
EXTT9=
EXTT10=
EXTT11=
EXTT12=
EXTT13=
EXTT14=
EXTT15=
EXTT16=
EXTT17=
PLAYORDER=
